<?xml version="1.0" encoding="UTF-8"?>
<svg version="1.1" xmlns="http://www.w3.org/2000/svg" width="500" height="500">
<path d="M0 0 C1.3921875 1.175625 1.3921875 1.175625 2.8125 2.375 C2.8125 3.035 2.8125 3.695 2.8125 4.375 C3.740625 4.74625 3.740625 4.74625 4.6875 5.125 C7.16318687 6.58128639 7.76375002 7.75312506 8.8125 10.375 C9.4725 10.375 10.1325 10.375 10.8125 10.375 C12.67929725 12.79792848 14.41846886 15.21724637 16.125 17.75 C16.62338379 18.48661865 17.12176758 19.2232373 17.63525391 19.98217773 C32.93354049 42.88938865 37.52938389 70.15494551 32.36572266 97.20019531 C29.56899788 109.89467982 24.60591441 122.30148567 17.8125 133.375 C17.1525 133.375 16.4925 133.375 15.8125 133.375 C15.626875 134.179375 15.44125 134.98375 15.25 135.8125 C13.30306008 140.63752502 10.37901891 144.58977946 6.8125 148.375 C6.1525 148.375 5.4925 148.375 4.8125 148.375 C4.8125 149.035 4.8125 149.695 4.8125 150.375 C4.1525 150.375 3.4925 150.375 2.8125 150.375 C2.59078125 150.92800781 2.3690625 151.48101562 2.140625 152.05078125 C-6.70005609 167.52197316 -31.74502632 180.3090297 -48.10400391 184.91455078 C-60.69269826 188.25536287 -73.11060804 190.11850222 -86.1875 189.375 C-87.1875 188.375 -87.1875 188.375 -87.30102539 185.50756836 C-87.29317017 183.63016968 -87.29317017 183.63016968 -87.28515625 181.71484375 C-87.2837413 181.05037735 -87.28232635 180.38591095 -87.28086853 179.7013092 C-87.27525518 177.57166101 -87.26270054 175.44211661 -87.25 173.3125 C-87.24498671 171.87174631 -87.24042351 170.43099097 -87.23632812 168.99023438 C-87.22528145 165.45178898 -87.20800792 161.91340461 -87.1875 158.375 C-85.2075 158.045 -83.2275 157.715 -81.1875 157.375 C-81.1875 135.925 -81.1875 114.475 -81.1875 92.375 C-83.1675 92.375 -85.1475 92.375 -87.1875 92.375 C-87.1875 82.805 -87.1875 73.235 -87.1875 63.375 C-87.8475 63.375 -88.5075 63.375 -89.1875 63.375 C-89.18226318 64.27855225 -89.17702637 65.18210449 -89.17163086 66.11303711 C-89.15462314 69.45451489 -89.14206667 72.79594692 -89.13256836 76.13745117 C-89.12752899 77.58570073 -89.12069747 79.03394517 -89.11206055 80.48217773 C-89.09997753 82.55974588 -89.09426789 84.63724697 -89.08984375 86.71484375 C-89.08460693 87.96644287 -89.07937012 89.21804199 -89.07397461 90.50756836 C-89.1875 93.375 -89.1875 93.375 -90.1875 94.375 C-92.1675 94.375 -94.1475 94.375 -96.1875 94.375 C-96.1875 115.825 -96.1875 137.275 -96.1875 159.375 C-93.8775 159.375 -91.5675 159.375 -89.1875 159.375 C-89.1875 168.945 -89.1875 178.515 -89.1875 188.375 C-104.06967745 188.375 -115.395681 184.46386607 -128.1875 177.375 C-129.08855469 176.89417969 -129.98960937 176.41335938 -130.91796875 175.91796875 C-134.53848369 173.96300881 -138.03138603 172.04016291 -141.1875 169.375 C-141.1875 168.715 -141.1875 168.055 -141.1875 167.375 C-142.03828125 167.01148438 -142.03828125 167.01148438 -142.90625 166.640625 C-149.23047144 163.1319816 -154.66924017 156.64668057 -158.1875 150.375 C-158.1875 149.715 -158.1875 149.055 -158.1875 148.375 C-158.8475 148.375 -159.5075 148.375 -160.1875 148.375 C-172.80667606 125.10937267 -178.89293398 98.66636259 -172.1875 72.375 C-171.90777344 71.25351562 -171.62804687 70.13203125 -171.33984375 68.9765625 C-166.86968876 52.29039689 -159.70187077 37.35273561 -148.1875 24.375 C-147.73665039 23.86291992 -147.28580078 23.35083984 -146.82128906 22.82324219 C-137.48199255 12.37936443 -124.84751457 1.40578227 -110.1875 0.375 C-109.465625 0.30796875 -108.74375 0.2409375 -108 0.171875 C-97.46981323 -0.34000908 -87.40841172 3.98468787 -79.4375 10.6875 C-71.94428212 19.63773247 -69.85646219 27.99940408 -69.96044922 39.56665039 C-69.96015717 40.43603241 -69.95986511 41.30541443 -69.95956421 42.20114136 C-69.96094471 45.04175199 -69.97644492 47.8820921 -69.9921875 50.72265625 C-69.99592219 52.70519365 -69.99876701 54.68773291 -70.00076294 56.67027283 C-70.00836349 61.86356795 -70.02798094 67.05674946 -70.0501709 72.25 C-70.07070675 77.55922916 -70.07978115 82.86847686 -70.08984375 88.17773438 C-70.11123045 98.57687256 -70.14532279 108.9759268 -70.1875 119.375 C-68.2075 119.045 -66.2275 118.715 -64.1875 118.375 C-64.1875 126.295 -64.1875 134.215 -64.1875 142.375 C-63.1975 142.375 -62.2075 142.375 -61.1875 142.375 C-61.1875 134.125 -61.1875 125.875 -61.1875 117.375 C-59.2075 117.045 -57.2275 116.715 -55.1875 116.375 C-55.19749275 114.71701889 -55.19749275 114.71701889 -55.20768738 113.02554321 C-55.26865143 102.58022705 -55.31354591 92.13494726 -55.34293652 81.68949318 C-55.35855476 76.32010068 -55.37972263 70.95085246 -55.41381836 65.58154297 C-55.44654907 60.39439868 -55.46438188 55.20739268 -55.47213173 50.02015305 C-55.47765069 48.04672445 -55.48842759 46.07330293 -55.50469017 44.09993362 C-55.62866292 28.42515758 -54.72448142 15.56606643 -43.421875 3.48828125 C-30.42837102 -8.12978424 -14.6709043 -10.00828897 0 0 Z M-8.44921875 30.01953125 C-9.6852459 30.27521126 -9.6852459 30.27521126 -10.94624329 30.53605652 C-12.69414731 30.89889919 -14.44179607 31.26297335 -16.18920898 31.62817383 C-18.84550485 32.18135752 -21.50372346 32.72454137 -24.16210938 33.26757812 C-25.86210878 33.62177432 -27.56198274 33.97657323 -29.26171875 34.33203125 C-30.05051926 34.49153763 -30.83931976 34.65104401 -31.65202332 34.81538391 C-40.28799084 36.56681747 -40.28799084 36.56681747 -47.125 41.6875 C-48.55515889 44.82330955 -48.55515889 44.82330955 -48.1875 50.375 C-42.5775 49.385 -36.9675 48.395 -31.1875 47.375 C-30.6925 73.61 -30.6925 73.61 -30.1875 100.375 C-20.86309048 99.4161775 -20.86309048 99.4161775 -17.625 96 C-15.53019689 92.17470737 -15.06207775 89.02869737 -15.07397461 84.69824219 C-15.07405014 83.77758972 -15.07412567 82.85693726 -15.07420349 81.90838623 C-15.07936478 80.92283752 -15.08452606 79.93728882 -15.08984375 78.921875 C-15.0912587 77.90651672 -15.09267365 76.89115845 -15.09413147 75.84503174 C-15.09972484 72.60499108 -15.11227615 69.36501975 -15.125 66.125 C-15.13001586 63.92708433 -15.13457861 61.72916758 -15.13867188 59.53125 C-15.1496921 54.14580971 -15.16642367 48.76040981 -15.1875 43.375 C-13.84945312 43.11976563 -13.84945312 43.11976563 -12.484375 42.859375 C-11.31390625 42.61703125 -10.1434375 42.3746875 -8.9375 42.125 C-7.77734375 41.89296875 -6.6171875 41.6609375 -5.421875 41.421875 C-1.94017373 40.29494754 -0.43774316 39.21762893 1.8125 36.375 C2.29050058 34.2496151 2.29050058 34.2496151 2.0625 32.125 C1.98 30.8875 1.8975 29.65 1.8125 28.375 C-1.66636757 28.375 -5.05274453 29.3156011 -8.44921875 30.01953125 Z M-131.5625 55.625 C-133.39941406 55.97304687 -133.39941406 55.97304687 -135.2734375 56.328125 C-142.60482078 57.88997772 -149.89085914 59.65814333 -157.1875 61.375 C-157.1875 82.825 -157.1875 104.275 -157.1875 126.375 C-149.58128455 125.52986495 -142.54245296 124.26965793 -135.125 122.5625 C-133.99255859 122.31435547 -132.86011719 122.06621094 -131.69335938 121.81054688 C-119.95401902 119.20684948 -119.95401902 119.20684948 -110.8125 111.8125 C-110.35101563 111.23371094 -109.88953125 110.65492188 -109.4140625 110.05859375 C-106.50511252 106.06573565 -105.868908 103.930059 -105.8125 99 C-105.76996094 97.31777344 -105.76996094 97.31777344 -105.7265625 95.6015625 C-106.28350166 91.70298836 -107.39757318 90.11070563 -110.1875 87.375 C-113.81223109 86.01664329 -113.81223109 86.01664329 -117.1875 85.375 C-116.5275 84.75625 -115.8675 84.1375 -115.1875 83.5 C-112.9590451 81.61862573 -112.9590451 81.61862573 -113.1875 79.375 C-112.5275 79.375 -111.8675 79.375 -111.1875 79.375 C-107.50075393 74.06608566 -106.74365208 69.81079479 -107.1875 63.375 C-108.57360406 59.13515229 -109.54508105 57.74562632 -113.4375 55.5 C-119.68330406 53.62625878 -125.23757923 54.39913907 -131.5625 55.625 Z " fill="#070707" transform="translate(320.1875,185.625)"/>
<path d="M0 0 C2.75251029 2.75251029 2.9632202 5.81829015 3.75 9.5 C5.86916611 18.57055793 9.25621826 26.87735506 16.84765625 32.7578125 C25.89688578 37.98041684 36.7988621 38.92768122 47 40 C47 40.66 47 41.32 47 42 C45.47632813 42.52787109 45.47632813 42.52787109 43.921875 43.06640625 C27.56373161 48.8708444 15.17447724 55.20028685 7.421875 71.4140625 C4.64578907 78.41529021 2.83193746 85.70467384 1 93 C0.34 93 -0.32 93 -1 93 C-1.39832031 91.33710938 -1.39832031 91.33710938 -1.8046875 89.640625 C-2.16120621 88.17702189 -2.51799103 86.71348359 -2.875 85.25 C-3.04902344 84.52039063 -3.22304687 83.79078125 -3.40234375 83.0390625 C-4.28983954 79.4233389 -5.27970308 76.31660848 -7 73 C-7 72.01 -7 71.02 -7 70 C-7.66 70 -8.32 70 -9 70 C-9.391875 69.278125 -9.78375 68.55625 -10.1875 67.8125 C-13.9662137 61.94897874 -20.29381686 58.61069958 -27 57 C-31.14619496 56.33422718 -35.31346501 55.87285799 -39.48828125 55.4296875 C-43 55 -43 55 -46 54 C-46 53.34 -46 52.68 -46 52 C-45.26136719 51.78085938 -44.52273437 51.56171875 -43.76171875 51.3359375 C-29.06611704 46.74239491 -15.88717251 39.59739059 -8.2421875 25.66796875 C-4.8382377 18.35696965 -2.74821669 10.79562489 -1.39453125 2.86328125 C-1 1 -1 1 0 0 Z " fill="#2D9F13" transform="translate(257,126)"/>
<path d="M0 0 C2.79403551 2.79403551 3.14304198 6.01419865 4 9.75 C5.13448038 14.58926788 6.34582848 19.30333442 8 24 C5.53199953 22.84826645 3.95216435 21.95216435 2 20 C1.01 20.66 0.02 21.32 -1 22 C-0.34 22.33 0.32 22.66 1 23 C-1.48538012 29.71052632 -1.48538012 29.71052632 -4 31.125 C-4.66 31.41375 -5.32 31.7025 -6 32 C-7.6766094 34.35967248 -8.8760476 36.18191417 -9.3125 39.0625 C-10.42603415 42.20064171 -13.2859324 43.22754769 -16 45 C-17.38868516 47.10039331 -17.38868516 47.10039331 -18 49 C-19.32 49 -20.64 49 -22 49 C-22.33 49.66 -22.66 50.32 -23 51 C-26.0625 51.625 -26.0625 51.625 -29 52 C-29 52.66 -29 53.32 -29 54 C-26.36 54 -23.72 54 -21 54 C-21 55.32 -21 56.64 -21 58 C-17.535 58.495 -17.535 58.495 -14 59 C-15.6875 60.1875 -15.6875 60.1875 -18 61 C-19.69905634 60.05607981 -21.36021682 59.04349839 -23 58 C-28.77169132 56.17736063 -34.33181518 55.62450839 -40.36328125 55.24609375 C-43 55 -43 55 -46 54 C-46 53.34 -46 52.68 -46 52 C-45.26136719 51.78085938 -44.52273437 51.56171875 -43.76171875 51.3359375 C-29.06611704 46.74239491 -15.88717251 39.59739059 -8.2421875 25.66796875 C-4.8382377 18.35696965 -2.74821669 10.79562489 -1.39453125 2.86328125 C-1 1 -1 1 0 0 Z " fill="#4CA914" transform="translate(257,126)"/>
<path d="M0 0 C2.50031654 3.75047482 2.53603554 5.55856266 2 10 C-1.66748972 15.37898493 -6.86364471 16.83028628 -13 18 C-15.72895761 18.20214501 -18.25919675 18.15226685 -21 18 C-21 13.05 -21 8.1 -21 3 C-13.72868994 0.11654946 -7.88357561 -1.81928668 0 0 Z " fill="#1B1B1B" transform="translate(198,279)"/>
<path d="M0 0 C1.54107422 -0.00773438 1.54107422 -0.00773438 3.11328125 -0.015625 C5.6875 0.25 5.6875 0.25 7.6875 2.25 C8.21579347 6.85370021 8.39633366 9.11080304 5.9375 13.0625 C0.21973918 16.91099286 -6.46989226 18.25 -13.3125 18.25 C-13.3125 12.97 -13.3125 7.69 -13.3125 2.25 C-8.11634227 0.76538351 -5.11162294 -0.02598029 0 0 Z " fill="#1C1C1C" transform="translate(190.3125,252.75)"/>
<path d="M0 0 C2.79403551 2.79403551 3.14304198 6.01419865 4 9.75 C5.13448038 14.58926788 6.34582848 19.30333442 8 24 C5.53199953 22.84826645 3.95216435 21.95216435 2 20 C-0.51599015 20.33652369 -0.51599015 20.33652369 -3 21 C-3.66 21 -4.32 21 -5 21 C-5.33 22.32 -5.66 23.64 -6 25 C-7 23 -7 23 -6.29296875 20.53125 C-5.92816406 19.5309375 -5.56335938 18.530625 -5.1875 17.5 C-3.48897958 12.64457438 -2.25907305 7.9293346 -1.39453125 2.86328125 C-1 1 -1 1 0 0 Z " fill="#86BF16" transform="translate(257,126)"/>
<path d="M0 0 C0.66 0.66 1.32 1.32 2 2 C1.59625551 7.13332281 0.30986328 11.99602231 -1.0625 16.9375 C-1.24876953 17.62134766 -1.43503906 18.30519531 -1.62695312 19.00976562 C-2.08089057 20.67420293 -2.53990916 22.33725312 -3 24 C-3.66 24 -4.32 24 -5 24 C-5.26554688 22.91460937 -5.53109375 21.82921875 -5.8046875 20.7109375 C-6.16133082 19.26559353 -6.5181088 17.82028278 -6.875 16.375 C-7.04902344 15.66214844 -7.22304687 14.94929687 -7.40234375 14.21484375 C-8.42854338 10.07203784 -9.58790729 6.03273322 -11 2 C-6.125 3.75 -6.125 3.75 -5 6 C-4.34 6 -3.68 6 -3 6 C-3 5.34 -3 4.68 -3 4 C-2.34 3.67 -1.68 3.34 -1 3 C-0.67 2.01 -0.34 1.02 0 0 Z " fill="#23902E" transform="translate(261,195)"/>
<path d="M0 0 C11.385 1.485 11.385 1.485 23 3 C23 3.66 23 4.32 23 5 C21.96101563 5.37511719 20.92203125 5.75023437 19.8515625 6.13671875 C11.99091052 9.00902512 4.3717336 11.99516396 -3 16 C-2.67 14.35 -2.34 12.7 -2 11 C-0.68 11 0.64 11 2 11 C2 10.34 2 9.68 2 9 C4 7 4 7 7 5 C7.99 5.33 8.98 5.66 10 6 C10.33 5.34 10.66 4.68 11 4 C7.7 3.67 4.4 3.34 1 3 C0.67 2.01 0.34 1.02 0 0 Z " fill="#2B8A32" transform="translate(281,163)"/>
<path d="M0 0 C0 0.66 0 1.32 0 2 C0.66 2.33 1.32 2.66 2 3 C-0.48097412 9.69863014 -0.48097412 9.69863014 -2.9375 11.125 C-3.618125 11.41375 -4.29875 11.7025 -5 12 C-6.35386936 13.65002828 -7.68678142 15.3174387 -9 17 C-11.25 18.8125 -11.25 18.8125 -13 20 C-13.66 19.67 -14.32 19.34 -15 19 C-15.33 19.99 -15.66 20.98 -16 22 C-16.99 21.34 -17.98 20.68 -19 20 C-18.46890625 19.50371094 -17.9378125 19.00742188 -17.390625 18.49609375 C-12.97430516 14.24901244 -9.8627903 10.39525863 -7 5 C-6.34 4.67 -5.68 4.34 -5 4 C-4.67 3.01 -4.34 2.02 -4 1 C-2 0 -2 0 0 0 Z " fill="#6AB511" transform="translate(256,146)"/>
<path d="M0 0 C0.66 0.99 1.32 1.98 2 3 C1 5 1 5 -1.9375 6.875 C-5.33454143 8.86924531 -5.33454143 8.86924531 -7 13 C-12.94 12.01 -12.94 12.01 -19 11 C-17.38019093 7.76038186 -14.20610876 6.41743756 -11 5 C-8.0625 4.75 -8.0625 4.75 -6 5 C-5.67 4.34 -5.34 3.68 -5 3 C-4.01 3 -3.02 3 -2 3 C-1.34 2.01 -0.68 1.02 0 0 Z " fill="#53AE11" transform="translate(246,162)"/>
<path d="M0 0 C1.22589844 0.01353516 1.22589844 0.01353516 2.4765625 0.02734375 C3.41628906 0.04474609 3.41628906 0.04474609 4.375 0.0625 C0.67359474 5.67430798 0.67359474 5.67430798 -2.8203125 6.71875 C-6.69775764 7.17943655 -9.85815043 7.16436756 -13.625 6.0625 C-13.625 5.4025 -13.625 4.7425 -13.625 4.0625 C-12.51125 3.588125 -11.3975 3.11375 -10.25 2.625 C-4.02654867 -0.05752212 -4.02654867 -0.05752212 0 0 Z " fill="#3FA710" transform="translate(241.625,173.9375)"/>
<path d="M0 0 C0.66 0.33 1.32 0.66 2 1 C1.67 1.66 1.34 2.32 1 3 C0.01 3.33 -0.98 3.66 -2 4 C0.64 5.32 3.28 6.64 6 8 C2.16441804 8.95889549 -0.18902671 8.98018838 -4.0625 8.625 C-5.10535156 8.53476563 -6.14820313 8.44453125 -7.22265625 8.3515625 C-10 8 -10 8 -13 7 C-13 6.34 -13 5.68 -13 5 C-12.14535156 4.72285156 -11.29070312 4.44570312 -10.41015625 4.16015625 C-9.30542969 3.79792969 -8.20070312 3.43570313 -7.0625 3.0625 C-5.96035156 2.70285156 -4.85820312 2.34320313 -3.72265625 1.97265625 C-1.11876525 1.26143332 -1.11876525 1.26143332 0 0 Z " fill="#7AB04D" transform="translate(224,173)"/>
<path d="M0 0 C2.59121224 2.59121224 2.64674398 4.41493567 3.25 8 C3.53617187 9.60875 3.53617187 9.60875 3.828125 11.25 C3.91320312 12.61125 3.91320312 12.61125 4 14 C3.34 14.66 2.68 15.32 2 16 C1.67 13.69 1.34 11.38 1 9 C0.34 9 -0.32 9 -1 9 C-1 10.32 -1 11.64 -1 13 C-1.66 13 -2.32 13 -3 13 C-2.88557539 11.39504433 -2.75805306 9.79101881 -2.625 8.1875 C-2.55539063 7.29417969 -2.48578125 6.40085938 -2.4140625 5.48046875 C-2 3 -2 3 0 0 Z " fill="#BACE67" transform="translate(257,126)"/>
<path d="M0 0 C2.93200474 2.85276137 5.64315404 5.65079784 8 9 C4.70897992 9.90786761 2.18880951 10.59440475 -1 9 C-0.67 6.03 -0.34 3.06 0 0 Z " fill="#5AAB25" transform="translate(265,150)"/>
<path d="M0 0 C0.66 0.33 1.32 0.66 2 1 C1.649375 1.886875 1.29875 2.77375 0.9375 3.6875 C-0.01755602 7.06203126 0.02848868 8.69686152 1 12 C-2 12 -2 12 -4 11 C-4.40729228 8.67843403 -4.74438677 6.3431213 -5 4 C-4.360625 3.71125 -3.72125 3.4225 -3.0625 3.125 C-0.84793921 2.17176549 -0.84793921 2.17176549 0 0 Z " fill="#038E0E" transform="translate(254,186)"/>
<path d="M0 0 C0.66 0 1.32 0 2 0 C2.33 1.65 2.66 3.3 3 5 C1.68 5.33 0.36 5.66 -1 6 C-1.33 7.98 -1.66 9.96 -2 12 C-2.66 12 -3.32 12 -4 12 C-4.33 13.32 -4.66 14.64 -5 16 C-6.40907283 13.18185434 -5.50872691 11.82722796 -4.5625 8.875 C-4.27503906 7.96492187 -3.98757812 7.05484375 -3.69140625 6.1171875 C-3.46324219 5.41851562 -3.23507813 4.71984375 -3 4 C-2.01 4 -1.02 4 0 4 C0 2.68 0 1.36 0 0 Z " fill="#A0C546" transform="translate(256,135)"/>
<path d="M0 0 C-0.66 1.65 -1.32 3.3 -2 5 C-2.99 5 -3.98 5 -5 5 C-6.67845419 6.53353564 -6.67845419 6.53353564 -8.1875 8.5 C-8.71730469 9.1496875 -9.24710937 9.799375 -9.79296875 10.46875 C-10.19128906 10.9740625 -10.58960938 11.479375 -11 12 C-11.66 11.67 -12.32 11.34 -13 11 C-11.52841629 7.38502261 -9.58537669 5.59408489 -6.5 3.25 C-5.7059375 2.63640625 -4.911875 2.0228125 -4.09375 1.390625 C-2 0 -2 0 0 0 Z " fill="#505154" transform="translate(287,183)"/>
<path d="M0 0 C2.64 0 5.28 0 8 0 C7.67 0.99 7.34 1.98 7 3 C5.68 2.67 4.36 2.34 3 2 C2.01 3.485 2.01 3.485 1 5 C0.34 5 -0.32 5 -1 5 C-1 5.66 -1 6.32 -1 7 C-1.99 7 -2.98 7 -4 7 C-4 5.68 -4 4.36 -4 3 C-3.01 3 -2.02 3 -1 3 C-0.67 2.01 -0.34 1.02 0 0 Z " fill="#0D910E" transform="translate(284,167)"/>
<path d="M0 0 C0 0.66 0 1.32 0 2 C0.66 2.33 1.32 2.66 2 3 C-1.1254959 5.64465038 -4.08788267 6.84414715 -8 8 C-7.67 7.01 -7.34 6.02 -7 5 C-6.34 4.67 -5.68 4.34 -5 4 C-4.67 3.01 -4.34 2.02 -4 1 C-2 0 -2 0 0 0 Z " fill="#81BD20" transform="translate(256,146)"/>
<path d="M0 0 C1.65 0.33 3.3 0.66 5 1 C1.87567603 3.52349243 -1.38060496 5.27256146 -5 7 C-4.67 5.35 -4.34 3.7 -4 2 C-2.68 2 -1.36 2 0 2 C0 1.34 0 0.68 0 0 Z " fill="#49A44F" transform="translate(283,172)"/>
<path d="M0 0 C3.82669043 3.42388092 5.72278474 6.00724943 7 11 C6.01 11.33 5.02 11.66 4 12 C3.896875 11.236875 3.79375 10.47375 3.6875 9.6875 C3.23565084 6.97012877 3.23565084 6.97012877 1.4375 5.4375 C0.963125 4.963125 0.48875 4.48875 0 4 C0 2.68 0 1.36 0 0 Z " fill="#4C4A4C" transform="translate(240,196)"/>
<path d="M0 0 C-0.33 0.99 -0.66 1.98 -1 3 C0.98 3 2.96 3 5 3 C5 3.33 5 3.66 5 4 C3.56260487 4.02712066 2.12506137 4.04645067 0.6875 4.0625 C-0.51326172 4.07990234 -0.51326172 4.07990234 -1.73828125 4.09765625 C-4 4 -4 4 -7 3 C-7 2.34 -7 1.68 -7 1 C-4.53721199 -0.231394 -2.7204945 -0.07159196 0 0 Z " fill="#A0C07B" transform="translate(218,177)"/>
<path d="M0 0 C-0.33 1.32 -0.66 2.64 -1 4 C-2.32 3.67 -3.64 3.34 -5 3 C-5.33 4.32 -5.66 5.64 -6 7 C-6.66 6.67 -7.32 6.34 -8 6 C-7.8125 3.625 -7.8125 3.625 -7 1 C-2.77108434 -1.38554217 -2.77108434 -1.38554217 0 0 Z " fill="#088C0F" transform="translate(279,175)"/>
<path d="M0 0 C2.475 0.99 2.475 0.99 5 2 C5.125 4.875 5.125 4.875 5 8 C4.34 8.66 3.68 9.32 3 10 C2.01 6.7 1.02 3.4 0 0 Z " fill="#3F9F48" transform="translate(250,197)"/>
<path d="M0 0 C0.33 1.32 0.66 2.64 1 4 C3.31 4.33 5.62 4.66 8 5 C6.3125 6.1875 6.3125 6.1875 4 7 C1.5 5.75 1.5 5.75 -1 4 C-2.32608822 3.31903578 -3.65686601 2.64669414 -5 2 C-3.35 1.34 -1.7 0.68 0 0 Z " fill="#6BAC55" transform="translate(235,180)"/>
<path d="M0 0 C0 0.66 0 1.32 0 2 C-0.66 2 -1.32 2 -2 2 C-2.66 3.32 -3.32 4.64 -4 6 C-5.98 6 -7.96 6 -10 6 C-8.80702902 3.61405803 -7.85642735 3.16265153 -5.5625 1.875 C-4.94503906 1.52179688 -4.32757813 1.16859375 -3.69140625 0.8046875 C-2 0 -2 0 0 0 Z " fill="#8DBE57" transform="translate(237,167)"/>
<path d="M0 0 C4.62 0.66 9.24 1.32 14 2 C14 2.33 14 2.66 14 3 C9.71 3 5.42 3 1 3 C0.67 2.01 0.34 1.02 0 0 Z " fill="#4F9F51" transform="translate(281,163)"/>
<path d="M0 0 C0.66 0 1.32 0 2 0 C2.33 2.31 2.66 4.62 3 7 C3.66 7 4.32 7 5 7 C4.67 8.65 4.34 10.3 4 12 C3.34 12 2.68 12 2 12 C1.34 8.04 0.68 4.08 0 0 Z " fill="#5E9C62" transform="translate(254,207)"/>
<path d="M0 0 C0.33 0.99 0.66 1.98 1 3 C0.67 3.66 0.34 4.32 0 5 C-0.66 5 -1.32 5 -2 5 C-2.33 6.32 -2.66 7.64 -3 9 C-4.32 8.67 -5.64 8.34 -7 8 C-4.69 5.36 -2.38 2.72 0 0 Z " fill="#9FC46F" transform="translate(247,155)"/>
<path d="M0 0 C0.66 0 1.32 0 2 0 C1.34 1.32 0.68 2.64 0 4 C-0.99 4 -1.98 4 -3 4 C-2.34 5.65 -1.68 7.3 -1 9 C-1.99 9.33 -2.98 9.66 -4 10 C-4 7.69 -4 5.38 -4 3 C-3.01 2.67 -2.02 2.34 -1 2 C-0.67 1.34 -0.34 0.68 0 0 Z " fill="#22952A" transform="translate(252,186)"/>
<path d="M0 0 C1.32 0.66 2.64 1.32 4 2 C1.36 3.98 -1.28 5.96 -4 8 C-4 6.68 -4 5.36 -4 4 C-3.01 4 -2.02 4 -1 4 C-0.67 2.68 -0.34 1.36 0 0 Z " fill="#54A457" transform="translate(274,178)"/>
<path d="M0 0 C0.33 0.99 0.66 1.98 1 3 C0.01 3.99 -0.98 4.98 -2 6 C-2.66 5.67 -3.32 5.34 -4 5 C-4.33 5.99 -4.66 6.98 -5 8 C-5.99 7.34 -6.98 6.68 -8 6 C-6 4 -6 4 -3.375 3.875 C-2.59125 3.91625 -1.8075 3.9575 -1 4 C-0.67 2.68 -0.34 1.36 0 0 Z " fill="#73B436" transform="translate(245,160)"/>
<path d="M0 0 C4.875 4.75 4.875 4.75 6 7 C1.125 6.125 1.125 6.125 0 5 C-0.04063832 3.33382885 -0.042721 1.66611905 0 0 Z " fill="#85BC51" transform="translate(265,150)"/>
<path d="M0 0 C0.66 0.33 1.32 0.66 2 1 C0.92598892 3.91517292 0.22189824 5.77810176 -2 8 C-2.125 5.125 -2.125 5.125 -2 2 C-1.34 1.34 -0.68 0.68 0 0 Z " fill="#499D52" transform="translate(267,186)"/>
<path d="M0 0 C3.96 0.33 7.92 0.66 12 1 C7.78370866 3.10814567 5.60209225 3.17700355 1 3 C0.67 2.01 0.34 1.02 0 0 Z " fill="#1D9716" transform="translate(278,165)"/>
<path d="M0 0 C1.73662334 3.22515763 2.8905928 6.51329166 4 10 C2.68 9.34 1.36 8.68 0 8 C0 5.36 0 2.72 0 0 Z " fill="#9CC55A" transform="translate(261,140)"/>
<path d="M0 0 C1.32 1.32 2.64 2.64 4 4 C3.01 4.33 2.02 4.66 1 5 C0.34 5.66 -0.32 6.32 -1 7 C-1.04254356 5.00045254 -1.04080783 2.99958364 -1 1 C-0.67 0.67 -0.34 0.34 0 0 Z " fill="#219D10" transform="translate(247,178)"/>
<path d="M0 0 C0.99 0 1.98 0 3 0 C2.34 1.32 1.68 2.64 1 4 C-1.31 4 -3.62 4 -6 4 C-6 3.67 -6 3.34 -6 3 C-4.35 3 -2.7 3 -1 3 C-0.67 2.01 -0.34 1.02 0 0 Z " fill="#5BA521" transform="translate(226,173)"/>
</svg>
